<svg width="500" height="300" viewBox="-250 -250 500 250" xmlns="http://www.w3.org/2000/svg">
  <defs>
    <style>
      @import url('https://fonts.googleapis.com/css2?family=Roboto:wght@400;700&display=swap');
      text { font-family: 'Roboto', sans-serif; }
      .title { font-size: 24px; font-weight: 700; text-anchor: middle; fill: #333; }
      .label { font-size: 12px; text-anchor: middle; fill: #555; }
    </style>
  </defs>
  
  <text x="0" y="-220" class="title">Data Science & AI Stack</text>

  <path d="M -200 0 A 200 200 0 0 1 200 0 L 120 0 A 120 120 0 0 0 -120 0 Z" fill="#f0f0f0"/>

  <path d="M -200 0 A 200 200 0 0 1 -61.8 -190.2 L -37.1 -114.1 A 120 120 0 0 0 -120 0 Z" fill="#3776ab"/>
  <path d="M -61.8 -190.2 A 200 200 0 0 1 141.4 -141.4 L 84.9 -84.9 A 120 120 0 0 0 -37.1 -114.1 Z" fill="#e34c26"/>
  <path d="M 141.4 -141.4 A 200 200 0 0 1 200 0 L 120 0 A 120 120 0 0 0 84.9 -84.9 Z" fill="#276dc3"/>
  
  <text x="0" y="-20" class="percentage" style="font-size: 36px; font-weight: bold;">Top 10</text>
  <text x="0" y="10" class="label" style="font-size: 18px;">Analytical Tools</text>

  <g transform="translate(-180, 40)">
    <rect x="0" y="0" width="15" height="15" fill="#3776ab"/><text x="20" y="12" class="label" style="text-anchor: start;">Python (35%)</text>
    <rect x="0" y="25" width="15" height="15" fill="#e34c26"/><text x="20" y="37" class="label" style="text-anchor: start;">SQL (20%)</text>
    <rect x="0" y="50" width="15" height="15" fill="#276dc3"/><text x="20" y="62" class="label" style="text-anchor: start;">R (15%)</text>
    <rect x="0" y="75" width="15" height="15" fill="#a270ba"/><text x="20" y="87" class="label" style="text-anchor: start;">Julia (8%)</text>
    <rect x="0" y="100" width="15" height="15" fill="#c22d40"/><text x="20" y="112" class="label" style="text-anchor: start;">Scala (6%)</text>
  </g>
  <g transform="translate(20, 40)">
    <rect x="0" y="0" width="15" height="15" fill="#b07219"/><text x="20" y="12" class="label" style="text-anchor: start;">Java (5%)</text>
    <rect x="0" y="25" width="15" height="15" fill="#f34b7d"/><text x="20" y="37" class="label" style="text-anchor: start;">C++ (4%)</text>
    <rect x="0" y="50" width="15" height="15" fill="#f7df1e"/><text x="20" y="62" class="label" style="text-anchor: start;">JavaScript (3%)</text>
    <rect x="0" y="75" width="15" height="15" fill="#e16737"/><text x="20" y="87" class="label" style="text-anchor: start;">Matlab (2%)</text>
    <rect x="0" y="100" width="15" height="15" fill="#00549f"/><text x="20" y="112" class="label" style="text-anchor: start;">SAS (2%)</text>
  </g>
</svg>
